<svg width="14" height="21" viewBox="0 0 14 21" fill="none" xmlns="http://www.w3.org/2000/svg">
<path d="M7 14L6.18683 14.8132L7 15.6263L7.81317 14.8132L7 14ZM8.15 2C8.15 1.36487 7.63513 0.850001 7 0.850001C6.36487 0.850001 5.85 1.36487 5.85 2L8.15 2ZM0.186827 8.81317L6.18683 14.8132L7.81317 13.1868L1.81317 7.18683L0.186827 8.81317ZM7.81317 14.8132L13.8132 8.81317L12.1868 7.18683L6.18683 13.1868L7.81317 14.8132ZM8.15 14L8.15 2L5.85 2L5.85 14L8.15 14Z" fill="#D49759"/>
<path d="M0 19L14 19" stroke="#D49759" stroke-width="2.3"/>
</svg>
