<svg width="19" height="19" viewBox="0 0 19 19" fill="none" xmlns="http://www.w3.org/2000/svg">
<path d="M9.89806 15.6345L10.1322 16.0763L10.1322 16.0763L9.89806 15.6345ZM9.10129 15.6345L9.33541 15.1927H9.33541L9.10129 15.6345ZM14.5413 8.70832C14.5413 10.4723 13.663 11.9174 12.5872 13.0266C11.5114 14.136 10.2763 14.8681 9.66394 15.1927L10.1322 16.0763C10.7903 15.7275 12.1269 14.9377 13.3051 13.7228C14.4833 12.5079 15.5413 10.8265 15.5413 8.70832H14.5413ZM9.49967 3.66666C12.2841 3.66666 14.5413 5.92389 14.5413 8.70832H15.5413C15.5413 5.3716 12.8364 2.66666 9.49967 2.66666V3.66666ZM4.45801 8.70832C4.45801 5.92389 6.71524 3.66666 9.49967 3.66666V2.66666C6.16295 2.66666 3.45801 5.3716 3.45801 8.70832H4.45801ZM9.33541 15.1927C8.72301 14.8681 7.48798 14.136 6.41214 13.0266C5.33639 11.9174 4.45801 10.4723 4.45801 8.70832H3.45801C3.45801 10.8265 4.51602 12.5079 5.69428 13.7228C6.87246 14.9377 8.20907 15.7275 8.86716 16.0763L9.33541 15.1927ZM9.66394 15.1927C9.55868 15.2484 9.44067 15.2484 9.33541 15.1927L8.86716 16.0763C9.2653 16.2872 9.73405 16.2872 10.1322 16.0763L9.66394 15.1927ZM11.3747 8.70832C11.3747 9.74386 10.5352 10.5833 9.49967 10.5833V11.5833C11.0875 11.5833 12.3747 10.2961 12.3747 8.70832H11.3747ZM9.49967 6.83332C10.5352 6.83332 11.3747 7.67279 11.3747 8.70832H12.3747C12.3747 7.1205 11.0875 5.83332 9.49967 5.83332V6.83332ZM7.62467 8.70832C7.62467 7.67279 8.46414 6.83332 9.49967 6.83332V5.83332C7.91186 5.83332 6.62467 7.1205 6.62467 8.70832H7.62467ZM9.49967 10.5833C8.46414 10.5833 7.62467 9.74386 7.62467 8.70832H6.62467C6.62467 10.2961 7.91186 11.5833 9.49967 11.5833V10.5833Z" fill="#B4640A"/>
</svg>
